<?xml version="1.0" encoding="UTF-8"?>
<svg id="objects" xmlns="http://www.w3.org/2000/svg" xmlns:xlink="http://www.w3.org/1999/xlink" version="1.1" viewBox="0 130 600 345">
  <!-- Generator: Adobe Illustrator 30.2.1, SVG Export Plug-In . SVG Version: 2.1.1 Build 1)  -->
  <defs>
    <style>
      .st0 {
        fill: url(#linear-gradient2);
      }

      .st1 {
        fill: url(#linear-gradient1);
      }

      .st2 {
        fill: url(#linear-gradient3);
      }

      .st3 {
        fill: url(#linear-gradient4);
      }

      .st4 {
        fill: #232323;
      }

      .st5 {
        fill: url(#linear-gradient);
      }

      .st6 {
        fill: #fff;
      }

      .st7 {
        fill: none;
        stroke: #000;
        stroke-miterlimit: 10;
        stroke-width: .5px;
      }
    </style>
    <linearGradient id="linear-gradient" x1="300" y1="443.5" x2="300" y2="450.7" gradientUnits="userSpaceOnUse">
      <stop offset=".4" stop-color="#808185"/>
      <stop offset=".5" stop-color="#78797d"/>
      <stop offset=".5" stop-color="#7a7b7f"/>
      <stop offset="1" stop-color="#0d0c11"/>
    </linearGradient>
    <linearGradient id="linear-gradient1" x1="300" y1="149.5" x2="300" y2="439.7" gradientUnits="userSpaceOnUse">
      <stop offset="0" stop-color="#363636"/>
      <stop offset="0" stop-color="#3a3a3a"/>
      <stop offset="0" stop-color="#404040"/>
      <stop offset=".1" stop-color="#7d7d7d"/>
      <stop offset=".2" stop-color="#404040"/>
      <stop offset=".2" stop-color="#383838"/>
      <stop offset=".4" stop-color="#404040"/>
      <stop offset=".4" stop-color="#797979"/>
      <stop offset=".5" stop-color="#404040"/>
      <stop offset=".6" stop-color="#404040"/>
      <stop offset=".6" stop-color="#626262"/>
      <stop offset=".6" stop-color="#404040"/>
      <stop offset=".7" stop-color="#404040"/>
      <stop offset=".8" stop-color="#3d3d3d"/>
      <stop offset=".9" stop-color="#404040"/>
      <stop offset=".9" stop-color="#7e7e7e"/>
      <stop offset="1" stop-color="#474747"/>
    </linearGradient>
    <linearGradient id="linear-gradient2" x1="40" y1="438.5" x2="560" y2="438.5" gradientUnits="userSpaceOnUse">
      <stop offset="0" stop-color="#49484d"/>
      <stop offset="0" stop-color="#d3d4d9"/>
      <stop offset="0" stop-color="#d0d1d6"/>
      <stop offset="0" stop-color="#8c8d92"/>
      <stop offset="0" stop-color="#85868b"/>
      <stop offset=".5" stop-color="#cbccd2"/>
      <stop offset=".9" stop-color="#85868b"/>
      <stop offset=".9" stop-color="#8b8c91"/>
      <stop offset="1" stop-color="#d0d1d6"/>
      <stop offset="1" stop-color="#d3d4d9"/>
      <stop offset="1" stop-color="#454449"/>
    </linearGradient>
    <linearGradient id="linear-gradient3" x1="258" y1="437" x2="342" y2="437" gradientUnits="userSpaceOnUse">
      <stop offset="0" stop-color="#161617"/>
      <stop offset="0" stop-color="#84848a"/>
      <stop offset=".3" stop-color="#8f8f96"/>
      <stop offset=".5" stop-color="#adadb5"/>
      <stop offset=".7" stop-color="#8a8b91"/>
      <stop offset=".9" stop-color="#7b7c81"/>
      <stop offset="1" stop-color="#0d0c11"/>
    </linearGradient>
    <linearGradient id="linear-gradient4" x1="83.6" y1="157.6" x2="174.7" y2="248.7" gradientUnits="userSpaceOnUse">
      <stop offset="0" stop-color="#9e9e9e"/>
      <stop offset="1" stop-color="#1d1d1b"/>
    </linearGradient>
  </defs>
  <path class="st5" d="M560,443.5s-16,7-40,7-416,0-440,0-40-7-40-7l260-2,260,2Z"/>
  <path class="st1" d="M99,149.5h402c5.5,0,10,4.5,10,10v274H89V159.5c0-5.5,4.5-10,10-10Z"/>
  <path d="M90.5,433.5V159.5c0-4.7,3.8-8.5,8.5-8.5h402c4.7,0,8.5,3.8,8.5,8.5v274H90.5Z"/>
  <rect class="st0" x="40" y="433.5" width="520" height="10"/>
  <path class="st2" d="M258,433.5h84c0,3.9-3.1,7-7,7h-70c-3.9,0-7-3.1-7-7h0Z"/>
  <line class="st7" x1="509.5" y1="424.5" x2="90.5" y2="424.5"/>
  <path class="st3" d="M274,152.5l-182,209v-202c0-3.9,3.1-7,7-7h175Z"/>
  <circle class="st4" cx="300" cy="160.5" r="3"/>
</svg>
