<?xml version="1.0" encoding="UTF-8"?>
<svg id="Logo_-_Artists" xmlns="http://www.w3.org/2000/svg" version="1.1" viewBox="0 0 777.3 167">
  <!-- Generator: Adobe Illustrator 30.2.1, SVG Export Plug-In . SVG Version: 2.1.1 Build 1)  -->
  <path d="M648.9,30.5h-4.9v62.1h4.9V30.5ZM129.2,52.4c0-30.2-21.3-50.1-55.4-50.1H0v164.7h23.2V21.3h47.1c22.5,0,35.2,12.1,35.2,31.1s-12.8,31.3-35.2,31.3h-29.6l63.4,83.3h28.6l-52.2-65.2c30.4-2.5,48.7-21.6,48.7-49.4M284.6,10.9V2.3h-54.1v8.1l5,.5c8.9.7,12.3,3.9,12.3,11.1v81.4c0,30.1-19,44.3-44.1,44.3s-44.1-14.1-44.1-44.3V22c0-7.2,3.7-11.6,13.6-11.6h41.7V2.3h-90.8v8.6c8.9.7,12.3,3.9,12.3,11.1v81.6c0,41.8,28.8,63.3,67.2,63.3s67.2-21.6,67.2-63.3V22c0-7.2,3.7-10.2,13.6-11.1M301.7,45c0-16.2,13.5-26,36.6-26s39,11.8,39.9,32.7h23.2c-1.4-32-24.1-51.7-62.6-51.7s-59.8,19-59.8,47.5c0,67.9,104.3,29,104.3,73.5s-13.2,26.7-37.6,26.7-46.1-14.1-47.8-38.3h-22.5c1.2,35.7,27.8,57.5,68.6,57.5s61.2-19,61.2-48.9c0-65.2-103.6-25-103.6-73.1M435.5,45c0-16.2,13.5-26,36.6-26s39,11.8,39.9,32.7h23.2c-1.4-32-24.1-51.7-62.6-51.7s-59.8,19-59.8,47.5c0,67.9,104.3,29,104.3,73.5s-13.2,26.7-37.6,26.7-46.1-14.1-47.8-38.3h-22.5c1.2,35.7,27.8,57.5,68.6,57.5s61.2-19,61.2-48.9c0-65.2-103.6-25-103.6-73.1M581.7,92.6h55.6v-4.2h-50.5V5.9h-5.2v86.6h0ZM650.8,11.2c0-2.4-1.8-4.1-4.4-4.1s-4.1,1.7-4.1,4.1,1.7,4.1,4.1,4.1,4.4-1.6,4.4-4.1M691.4,92.6l28.1-62.1h-5l-25.8,57.6-25.9-57.6h-5.3l28.2,62.1h5.7ZM772.4,58.2h-49.2c1.2-15.6,11.1-25.1,25-25.1s23.3,9.3,24.2,25.1M777.3,61.9c.3-19.8-10.6-32.7-29.1-32.7s-30.1,13.6-30.1,32.3,12,32.3,30.5,32.3,25.2-7.7,28.2-20.9h-4.9c-2.5,11-11.3,17.1-23.2,17.1s-25.5-10.6-25.6-28.1h54.2,0Z"/>
</svg>